<svg width="47" height="47" viewBox="0 0 47 47" fill="none" xmlns="http://www.w3.org/2000/svg">
<rect x="0.5" y="0.720093" width="46" height="46" rx="7" fill="#FF6011"/>
<path d="M37.4102 10.1615L31.3164 8.75527C30.6543 8.60293 29.9746 8.94863 29.7051 9.56973L26.8926 16.1322C26.6465 16.7064 26.8105 17.3803 27.2969 17.7729L30.8477 20.6791C28.7383 25.1732 25.0527 28.9115 20.4648 31.0619L17.5586 27.5111C17.1602 27.0248 16.4922 26.8607 15.918 27.1068L9.35547 29.9193C8.72852 30.1947 8.38281 30.8744 8.53516 31.5365L9.94141 37.6303C10.0879 38.2631 10.6504 38.7201 11.3125 38.7201C26.3184 38.7201 38.5 26.5619 38.5 11.5326C38.5 10.8764 38.0488 10.308 37.4102 10.1615Z" fill="white"/>
</svg>
