<svg width="187" height="68" viewBox="0 0 187 68" fill="none" xmlns="http://www.w3.org/2000/svg">
<path d="M1.20098 29.353C0.797799 29.0255 0.268623 27.6899 0.268623 26.0772C0.268623 25.422 0.369418 24.7165 0.596208 24.0109C3.92246 14.3345 23.754 2.74306 35.6982 2.74306C40.2088 2.74306 43.5854 4.38099 44.5682 8.3624C44.7446 9.11837 44.8454 9.94993 44.8454 10.8319C44.8454 16.7788 40.8892 24.9684 38.1173 29.7562C42.8547 24.3637 56.1849 8.81598 62.2326 8.5136C62.4846 8.4884 62.7366 8.4884 62.9634 8.4884C66.3148 8.4884 67.0708 9.92473 67.0708 9.92473C67.0708 9.92473 66.6676 9.69794 65.7352 9.69794C64.1477 9.69794 61.0231 10.4035 55.8573 14.2589C50.0112 18.6183 40.4356 29.2019 35.4462 34.8716L34.9422 35.8292C39.0497 35.4764 44.669 34.9472 49.986 34.8968C51.0191 34.8968 52.1783 34.8716 53.413 34.8716C63.4169 34.8716 78.3851 35.3252 82.4925 38.727C82.4925 38.727 82.0641 39.0294 81.3333 39.0294C80.9301 39.0294 80.401 38.9286 79.7962 38.601C78.3599 37.7947 63.6941 36.6607 52.8838 36.6607C51.3215 36.6607 49.8348 36.6859 48.4992 36.7363C40.7884 37.0639 36.0258 37.5427 33.9595 37.7947C33.8839 37.9711 33.7831 38.1474 33.7075 38.2986C31.9436 42.0029 26.7274 50.1673 24.7619 53.0904C22.9728 55.7866 21.7632 57.5254 21.2089 57.5254C21.1585 57.5254 21.1333 57.5002 21.0829 57.475C20.8309 57.2986 20.6293 56.3662 20.6293 55.3835C20.6293 54.5267 20.8057 53.5943 21.2341 53.0652C22.116 51.9816 25.9967 43.2124 26.7778 41.6753C25.4423 42.6328 23.9555 43.414 22.5948 43.4644H22.242C20.8813 43.4644 20.2765 43.036 20.2765 42.3809C20.2765 40.5413 24.8627 36.9379 29.6001 36.1819C31.4648 32.5029 40.5616 17.8876 40.5616 10.0255C40.5616 8.76559 40.3348 7.65684 39.7804 6.82528C38.6465 5.11175 36.5046 4.35579 33.7327 4.35579C22.242 4.35579 0.445015 17.2324 0.445015 26.556C0.445015 27.5387 0.671805 28.4711 1.20098 29.353ZM28.0378 39.2058L28.5921 38.1474C24.6359 38.8782 22.6704 40.7429 22.6704 41.5997C22.6704 41.9021 22.8972 42.0785 23.3256 42.0785C23.7036 42.0785 24.2579 41.9525 24.9635 41.5997C26.047 41.0705 27.2062 40.0374 28.0378 39.2058ZM53.3374 26.9844C53.2618 26.9592 53.161 26.9592 53.0602 26.9592C52.7326 26.9592 52.3546 27.0852 51.9515 27.5135C51.1955 28.3451 50.7419 29.3027 50.7419 29.7058C50.7419 29.8066 50.7671 29.857 50.8175 29.8822H50.8427C51.0695 29.8822 52.531 28.7735 53.9422 27.6647C53.7658 27.2615 53.539 27.0852 53.3374 26.9844ZM57.596 26.4804C57.596 26.5056 54.0178 31.4194 53.3878 33.1077C56.6637 31.1422 59.1583 28.4207 60.3931 27.3875L60.6451 27.4883C60.6451 27.5135 53.5642 34.9472 51.4223 34.9472C51.2963 34.9472 51.1955 34.922 51.0947 34.8716C50.9939 34.796 50.9435 34.6448 50.9435 34.4684C50.9435 33.3345 52.7578 30.4618 54.1942 28.3451C54.169 28.2443 54.1438 28.1687 54.1186 28.0931L53.5138 28.5719C52.2539 29.605 50.2379 31.1422 49.6836 31.243H49.5324C49.0032 31.243 48.2472 30.8902 48.2472 29.857V29.8066C48.2472 28.6727 49.4568 25.9764 51.1955 25.4724C51.4727 25.3968 51.6995 25.3716 51.9263 25.3716C52.3043 25.3716 52.6066 25.4724 52.8586 25.6236L52.8838 25.6488C53.4634 26.0268 53.8666 26.8584 54.0934 27.5387C54.5973 27.1607 55.0761 26.7828 55.5045 26.4552C55.7817 26.0772 55.9581 25.8252 55.9581 25.8252C56.2353 25.3968 56.5377 25.2204 56.8148 25.2204C57.2684 25.2204 57.596 25.6992 57.596 26.304V26.4804ZM54.295 28.1939C54.421 28.0175 54.5469 27.8411 54.6477 27.6647L54.2446 27.9923C54.2698 28.0679 54.2698 28.1435 54.295 28.1939ZM67.7183 16.9048C67.7939 16.8796 67.8695 16.8796 67.9451 16.8796C68.7514 16.8796 69.205 17.6356 69.205 18.2152C69.205 18.4419 69.1294 18.6435 69.0034 18.7443C68.4742 19.1727 68.1718 19.0215 67.1387 19.9287C66.9623 20.1051 66.6599 20.4327 66.3071 20.861C69.4066 20.6342 73.766 20.2815 75.3283 20.2815C75.6559 20.2815 75.8575 20.3067 75.9079 20.3319C75.9583 20.3823 76.0087 20.4579 76.0087 20.5586C76.0087 21.0626 75.1519 22.1462 74.7991 22.2974C74.5472 22.3982 74.3708 22.3982 74.27 22.3982H74.1692C74.1692 22.3982 73.6148 21.5162 71.7501 21.365C71.5485 21.3398 71.3217 21.3398 71.0193 21.3398C69.7342 21.3398 67.6175 21.4658 65.7024 21.617C63.4597 24.4645 59.6042 29.8066 58.9491 30.8902C58.8483 31.0414 58.8231 31.1422 58.8231 31.2178C58.8231 31.2934 58.8483 31.3186 58.9239 31.3186C59.2767 31.3186 60.335 30.7138 61.5949 29.9578C63.6361 28.7735 65.2236 27.5891 65.3496 27.5135C65.3748 27.4883 65.4 27.4883 65.4252 27.4883C65.5008 27.4883 65.5512 27.5639 65.5512 27.5639C64.3416 28.6727 60.9398 31.6461 58.3947 32.1501C58.1931 32.2005 58.0419 32.2005 57.8907 32.2005C57.1096 32.2005 57.2355 31.5705 57.16 31.0414V31.0162C57.16 30.6886 57.8655 29.3278 58.1931 28.8239C60.1082 26.0772 61.5194 24.0865 63.1825 21.7934C62.4769 21.8438 61.9225 21.869 61.6453 21.869C60.3602 21.9194 59.7554 22.0706 59.2515 22.121C58.7223 22.1714 57.6639 22.4738 57.3363 22.8517C57.16 23.0533 57.0088 23.1037 56.908 23.1037C56.8072 23.1037 56.7316 23.0533 56.7316 23.0533C56.7316 23.0533 56.5804 22.5746 56.5804 22.0958C56.5804 21.8186 56.6308 21.5414 56.8072 21.3902C57.1348 21.0878 59.1255 21.0626 60.9398 21.0626H63.1321C63.2833 21.0626 63.4849 21.0374 63.7369 21.0374L64.4676 20.0295C64.9464 19.3743 65.148 19.1979 66.0299 18.064C66.9119 16.9048 67.7183 16.9048 67.7183 16.9048ZM65.6344 26.5308C66.3148 25.5732 66.97 24.3889 67.6755 23.9605C67.7511 23.9101 67.8519 23.8849 67.9527 23.8849C68.4315 23.8849 69.2127 24.3385 69.4143 24.8425V24.8677C69.4143 25.2204 67.7511 27.0852 67.7511 27.1859C67.8771 27.1859 69.0111 26.052 69.9182 25.4976C70.397 25.2204 70.8002 25.1196 71.1278 25.1196C71.5814 25.1196 71.9342 25.296 72.2113 25.3716C72.5641 25.4976 72.6901 25.6236 72.9673 25.6236C73.0933 25.6236 73.2193 25.5984 73.4209 25.548C73.5973 25.4976 73.7233 25.4724 73.8241 25.4724C74.1769 25.4724 74.3028 25.6488 74.3028 25.6488C74.3028 25.6488 74.2273 25.6236 74.1013 25.6236C73.9249 25.6236 73.6981 25.6488 73.3453 25.8C73.2193 25.8504 73.0933 25.8756 72.9673 25.8756C72.5389 25.8756 72.0601 25.674 71.4302 25.674C71.1782 25.674 70.8758 25.6992 70.5482 25.8252C69.2631 26.2788 66.1888 30.0586 65.6596 30.4366C65.4077 30.613 65.0801 30.7138 64.7525 30.7138C64.3997 30.7138 64.0469 30.5626 63.8957 30.235C63.8705 30.1846 63.8453 30.109 63.8453 30.0082C63.8453 29.2019 65.0297 27.3875 65.6344 26.5308ZM77.7242 22.5746C78.0266 22.5746 78.2786 22.8013 78.2786 23.1289C78.2786 23.4313 78.0266 23.6833 77.7242 23.6833C77.4218 23.6833 77.1698 23.4313 77.1698 23.1289C77.1698 22.8013 77.4218 22.5746 77.7242 22.5746ZM75.6831 24.9684C75.8595 24.8677 76.0359 24.8173 76.1871 24.8173C76.943 24.8173 77.321 25.8252 77.321 25.8252C77.321 25.8252 77.1194 26.0016 76.8422 26.304C76.5902 26.5812 73.264 30.613 73.264 30.8902C73.264 30.9154 73.264 30.9154 73.2892 30.9154C73.642 30.7894 78.4046 27.5135 78.4046 27.5135L78.7321 27.4379C78.7321 27.4379 73.1128 32.3265 71.5253 32.3265C71.3993 32.3265 71.2985 32.3013 71.2229 32.2257C71.1473 32.1501 71.1221 32.0493 71.1221 31.9233C71.1221 30.361 75.6831 24.9684 75.6831 24.9684ZM79.6566 25.6488C79.8582 25.296 80.3622 25.17 80.841 25.17C81.3197 25.17 81.7733 25.296 81.8741 25.5228V25.5732C81.8741 26.1276 79.9086 28.3451 79.9086 28.3451C79.9086 28.3451 81.2441 27.3371 82.6805 26.304C83.4364 25.7748 84.016 25.548 84.4696 25.548C84.8728 25.548 85.15 25.7496 85.3264 26.0772C85.3516 26.1276 85.3516 26.178 85.3516 26.2284C85.3516 27.06 83.5372 29.3027 83.5372 29.5294V29.5546C83.5624 29.5798 83.6128 29.605 83.6632 29.605C83.9656 29.605 84.6712 29.3027 85.7547 28.5971C86.9139 27.8663 87.5439 27.5135 87.6699 27.5135C87.6951 27.5135 87.6951 27.5135 87.6951 27.5387C87.6699 27.6395 83.8144 30.4366 82.3781 30.4366C82.2017 30.4366 82.0757 30.4114 81.9749 30.3106C81.8489 30.1594 81.7985 29.983 81.7985 29.7562C81.7985 28.7483 82.9577 27.1355 82.9577 26.8836C82.9577 26.8584 82.9325 26.8584 82.9325 26.8584H82.8821C82.4033 27.0348 78.3463 30.6634 78.3463 30.6634H78.2707C78.1195 30.6634 77.6407 30.6382 77.1871 30.3106C77.1367 30.2854 77.1115 30.2098 77.1115 30.1342C77.1115 29.2019 79.6566 25.6488 79.6566 25.6488ZM91.3079 26.9844C91.2323 26.9592 91.1315 26.9592 91.0308 26.9592C90.7032 26.9592 90.3252 27.0852 89.922 27.5135C89.166 28.3451 88.7125 29.3027 88.7125 29.7058C88.7125 29.8066 88.7377 29.857 88.7881 29.8822H88.8133C89.04 29.8822 90.5016 28.7735 91.9127 27.6647C91.7363 27.2615 91.5095 27.0852 91.3079 26.9844ZM95.5665 26.4804C95.5665 26.5056 91.9883 31.4194 91.3583 33.1077C94.6342 31.1422 97.1289 28.4207 98.3636 27.3875L98.6156 27.4883C98.6156 27.5135 91.5347 34.9472 89.3928 34.9472C89.2668 34.9472 89.166 34.922 89.0652 34.8716C88.9644 34.796 88.914 34.6448 88.914 34.4684C88.914 33.3345 90.7284 30.4618 92.1647 28.3451C92.1395 28.2443 92.1143 28.1687 92.0891 28.0931L91.4843 28.5719C90.2244 29.605 88.2085 31.1422 87.6541 31.243H87.5029C86.9737 31.243 86.2178 30.8902 86.2178 29.857V29.8066C86.2178 28.6727 87.4273 25.9764 89.166 25.4724C89.4432 25.3968 89.67 25.3716 89.8968 25.3716C90.2748 25.3716 90.5772 25.4724 90.8292 25.6236L90.8544 25.6488C91.4339 26.0268 91.8371 26.8584 92.0639 27.5387C92.5679 27.1607 93.0467 26.7828 93.475 26.4552C93.7522 26.0772 93.9286 25.8252 93.9286 25.8252C94.2058 25.3968 94.5082 25.2204 94.7854 25.2204C95.239 25.2204 95.5665 25.6992 95.5665 26.304V26.4804ZM92.2655 28.1939C92.3915 28.0175 92.5175 27.8411 92.6183 27.6647L92.2151 27.9923C92.2403 28.0679 92.2403 28.1435 92.2655 28.1939ZM164.437 18.2152V17.7112C164.437 15.0401 163.631 2.31468 148.411 2.31468C131.376 2.31468 113.787 14.5109 112.074 30.1342C111.998 30.7642 111.973 31.369 111.973 31.9233C111.973 34.796 112.88 36.6103 114.392 37.5679C120.516 32.8305 128.932 28.5719 140.372 25.7748C140.372 25.7748 141.078 23.6833 141.708 22.0454C142.161 21.0626 142.968 20.5083 143.699 20.5083C144.303 20.5083 144.883 20.8862 145.21 21.7178C145.16 22.247 145.362 21.8942 144.404 25.1952C147.075 24.5653 147.882 24.4897 150.905 24.1621L150.956 24.5401C147.806 25.0188 147.05 25.0188 144.228 25.6992C139.465 41.3477 124.043 63.2455 110.26 66.6725C109.1 66.9497 108.067 67.1009 107.16 67.1009C102.574 67.1009 100.86 63.7243 100.86 59.6421C100.86 56.5678 101.843 53.0652 103.305 50.3437C105.321 46.6143 108.345 42.658 112.704 38.9538C109.63 37.7191 108.219 34.7204 108.219 30.9658C108.219 24.0613 112.981 14.5613 120.667 8.76559C128.831 2.61707 138.155 0.449966 145.563 0.449966C150.149 0.449966 153.98 1.28153 156.348 2.51627C161.892 5.41414 164.563 10.8571 164.563 16.174C164.563 16.8544 164.538 17.5348 164.437 18.2152ZM115.4 38.0467C116.081 38.2734 116.837 38.3994 117.693 38.3994C123.035 38.3994 131.301 33.8132 138.76 27.2615C128.478 29.9578 120.944 33.788 115.4 38.0467ZM139.314 28.1687C134.274 33.1329 124.623 39.6342 116.685 39.6342C115.703 39.6342 114.745 39.5334 113.813 39.3066C109.428 42.9856 106.429 46.9418 104.388 50.7469C103.128 53.1156 101.894 56.5426 101.894 59.3397C101.894 62.0612 103.053 64.1779 106.429 64.1779C107.236 64.1779 108.219 64.0519 109.327 63.7747C120.818 60.65 134.199 39.3822 139.314 28.1687ZM149.77 26.5308C150.45 25.5732 151.106 24.3889 151.811 23.9605C151.887 23.9101 151.988 23.8849 152.088 23.8849C152.567 23.8849 153.348 24.3385 153.55 24.8425V24.8677C153.55 25.2204 151.887 27.0852 151.887 27.1859C152.013 27.1859 153.147 26.052 154.054 25.4976C154.533 25.2204 154.936 25.1196 155.263 25.1196C155.717 25.1196 156.07 25.296 156.347 25.3716C156.7 25.4976 156.826 25.6236 157.103 25.6236C157.229 25.6236 157.355 25.5984 157.557 25.548C157.733 25.4976 157.859 25.4724 157.96 25.4724C158.312 25.4724 158.438 25.6488 158.438 25.6488C158.438 25.6488 158.363 25.6236 158.237 25.6236C158.06 25.6236 157.834 25.6488 157.481 25.8C157.355 25.8504 157.229 25.8756 157.103 25.8756C156.675 25.8756 156.196 25.674 155.566 25.674C155.314 25.674 155.011 25.6992 154.684 25.8252C153.399 26.2788 150.324 30.0586 149.795 30.4366C149.543 30.613 149.216 30.7138 148.888 30.7138C148.535 30.7138 148.183 30.5626 148.031 30.235C148.006 30.1846 147.981 30.109 147.981 30.0082C147.981 29.2019 149.165 27.3875 149.77 26.5308ZM161.86 22.5746C162.162 22.5746 162.414 22.8013 162.414 23.1289C162.414 23.4313 162.162 23.6833 161.86 23.6833C161.557 23.6833 161.305 23.4313 161.305 23.1289C161.305 22.8013 161.557 22.5746 161.86 22.5746ZM159.819 24.9684C159.995 24.8677 160.171 24.8173 160.323 24.8173C161.079 24.8173 161.457 25.8252 161.457 25.8252C161.457 25.8252 161.255 26.0016 160.978 26.304C160.726 26.5812 157.4 30.613 157.4 30.8902C157.4 30.9154 157.4 30.9154 157.425 30.9154C157.778 30.7894 162.54 27.5135 162.54 27.5135L162.868 27.4379C162.868 27.4379 157.248 32.3265 155.661 32.3265C155.535 32.3265 155.434 32.3013 155.358 32.2257C155.283 32.1501 155.258 32.0493 155.258 31.9233C155.258 30.361 159.819 24.9684 159.819 24.9684ZM171.957 20.3571C171.957 20.3571 171.856 20.2311 171.579 20.2311C171.125 20.2311 170.243 20.5838 168.656 22.4486C166.866 24.5149 163.817 28.1183 160.869 31.8477C161.373 31.8225 161.877 31.8225 162.356 31.8225C167.27 31.8225 171.528 32.4525 171.528 32.4525L170.848 32.5785C170.848 32.5785 167.622 32.1249 163.54 32.1249C162.583 32.1249 161.6 32.1501 160.592 32.2005C159.408 33.7124 158.223 35.2496 157.19 36.7111C153.486 41.8013 151.117 45.0519 150.487 45.0519C150.134 45.0519 149.328 44.6236 149.328 43.3384C149.328 42.2549 149.882 40.5665 151.747 38.0467C154.443 34.418 156.585 33.0069 157.745 32.4777C153.914 33.0069 150.26 34.1912 148.371 36.6859C148.371 36.6859 147.766 36.1819 147.766 35.5772C147.766 35.2496 147.942 34.8716 148.497 34.544C150.034 33.6369 153.637 32.3013 159.03 31.9485C162.583 26.9592 166.186 21.995 167.522 20.5838C169.966 18.0136 171.78 16.7536 172.939 16.7536C173.166 16.7536 173.343 16.804 173.519 16.8796C173.746 16.9804 173.821 17.2072 173.821 17.4592C173.821 18.4923 172.486 20.3571 171.957 20.3571ZM158.072 32.4273C157.039 32.9817 154.796 34.3676 152.78 37.3411C150.764 40.3397 150.109 42.1541 150.109 43.0108C150.109 43.3132 150.185 43.4896 150.336 43.54H150.361C150.714 43.54 154.645 38.0215 158.702 32.3517C158.5 32.3769 158.299 32.4021 158.072 32.4273ZM176.928 20.3571C176.928 20.3571 176.827 20.2311 176.55 20.2311C176.096 20.2311 175.214 20.5838 173.626 22.4486C171.837 24.5149 168.788 28.1183 165.84 31.8477C166.344 31.8225 166.848 31.8225 167.327 31.8225C172.241 31.8225 176.499 32.4525 176.499 32.4525L175.819 32.5785C175.819 32.5785 172.593 32.1249 168.511 32.1249C167.554 32.1249 166.571 32.1501 165.563 32.2005C164.379 33.7124 163.194 35.2496 162.161 36.7111C158.457 41.8013 156.088 45.0519 155.458 45.0519C155.105 45.0519 154.299 44.6236 154.299 43.3384C154.299 42.2549 154.853 40.5665 156.718 38.0467C159.414 34.418 161.556 33.0069 162.715 32.4777C158.885 33.0069 155.231 34.1912 153.341 36.6859C153.341 36.6859 152.737 36.1819 152.737 35.5772C152.737 35.2496 152.913 34.8716 153.467 34.544C155.005 33.6369 158.608 32.3013 164.001 31.9485C167.554 26.9592 171.157 21.995 172.493 20.5838C174.937 18.0136 176.751 16.7536 177.91 16.7536C178.137 16.7536 178.313 16.804 178.49 16.8796C178.717 16.9804 178.792 17.2072 178.792 17.4592C178.792 18.4923 177.457 20.3571 176.928 20.3571ZM163.043 32.4273C162.01 32.9817 159.767 34.3676 157.751 37.3411C155.735 40.3397 155.08 42.1541 155.08 43.0108C155.08 43.3132 155.156 43.4896 155.307 43.54H155.332C155.685 43.54 159.616 38.0215 163.673 32.3517C163.471 32.3769 163.27 32.4021 163.043 32.4273ZM176.329 22.5746C176.632 22.5746 176.884 22.8013 176.884 23.1289C176.884 23.4313 176.632 23.6833 176.329 23.6833C176.027 23.6833 175.775 23.4313 175.775 23.1289C175.775 22.8013 176.027 22.5746 176.329 22.5746ZM174.288 24.9684C174.465 24.8677 174.641 24.8173 174.792 24.8173C175.548 24.8173 175.926 25.8252 175.926 25.8252C175.926 25.8252 175.725 26.0016 175.447 26.304C175.196 26.5812 171.869 30.613 171.869 30.8902C171.869 30.9154 171.869 30.9154 171.894 30.9154C172.247 30.7894 177.01 27.5135 177.01 27.5135L177.337 27.4379C177.337 27.4379 171.718 32.3265 170.131 32.3265C170.005 32.3265 169.904 32.3013 169.828 32.2257C169.753 32.1501 169.727 32.0493 169.727 31.9233C169.727 30.361 174.288 24.9684 174.288 24.9684ZM178.262 25.6488C178.463 25.296 178.967 25.17 179.446 25.17C179.925 25.17 180.379 25.296 180.479 25.5228V25.5732C180.479 26.1276 178.514 28.3451 178.514 28.3451C178.514 28.3451 179.849 27.3371 181.286 26.304C182.042 25.7748 182.621 25.548 183.075 25.548C183.478 25.548 183.755 25.7496 183.932 26.0772C183.957 26.1276 183.957 26.178 183.957 26.2284C183.957 27.06 182.143 29.3027 182.143 29.5294V29.5546C182.168 29.5798 182.218 29.605 182.269 29.605C182.571 29.605 183.276 29.3027 184.36 28.5971C185.519 27.8663 186.149 27.5135 186.275 27.5135C186.3 27.5135 186.3 27.5135 186.3 27.5387C186.275 27.6395 182.42 30.4366 180.983 30.4366C180.807 30.4366 180.681 30.4114 180.58 30.3106C180.454 30.1594 180.404 29.983 180.404 29.7562C180.404 28.7483 181.563 27.1355 181.563 26.8836C181.563 26.8584 181.538 26.8584 181.538 26.8584H181.487C181.009 27.0348 176.952 30.6634 176.952 30.6634H176.876C176.725 30.6634 176.246 30.6382 175.792 30.3106C175.742 30.2854 175.717 30.2098 175.717 30.1342C175.717 29.2019 178.262 25.6488 178.262 25.6488Z" fill="black"/>
</svg>
