<svg width="38" height="39" viewBox="0 0 38 39" fill="none" xmlns="http://www.w3.org/2000/svg">
<rect x="0.109985" y="0.830078" width="37.39" height="37.39" rx="3" fill="#FF6011"/>
<path d="M21.7958 10.3113C23.996 10.3154 24.0819 10.3335 24.5117 10.3955C25.3995 10.5234 26.1442 10.8773 26.7528 11.459C27.0939 11.7873 27.3293 12.1085 27.5407 12.5384C27.7988 13.0635 27.9256 13.5605 27.9834 14.2999C27.9957 14.4582 28.0015 16.9819 28.0015 19.5074C28.0015 22.0329 27.9962 24.5607 27.984 24.7196C27.9267 25.4467 27.8 25.9485 27.55 26.4636C27.053 27.4886 26.1395 28.2362 25.0368 28.5207C24.6367 28.624 24.2752 28.6725 23.652 28.7017C23.4295 28.7128 21.1049 28.7157 18.7797 28.7157C16.4546 28.7157 14.1312 28.7087 13.9034 28.6988C13.3655 28.6731 12.9461 28.6194 12.5671 28.5218C11.4714 28.2386 10.541 27.4799 10.0538 26.4689C9.7992 25.9409 9.67888 25.4578 9.61522 24.6904C9.59711 24.4725 9.59244 23.3494 9.59244 19.5097C9.59244 18.2161 9.59127 17.2518 9.59244 16.5188C9.59594 14.3204 9.61405 14.2322 9.67654 13.8017C9.80445 12.9151 10.1584 12.1693 10.7425 11.563C11.0631 11.2307 11.3878 10.9935 11.8002 10.7885C12.3346 10.5222 12.8258 10.3984 13.6143 10.3324C13.8327 10.3143 14.9565 10.3102 18.7996 10.3102H21.7958V10.3113ZM18.7943 12.7189C16.9493 12.7189 16.718 12.727 15.9932 12.7597C15.2695 12.793 14.776 12.9075 14.3438 13.0757C13.897 13.2492 13.5173 13.4816 13.14 13.8595C12.7627 14.2374 12.5297 14.6165 12.3556 15.0633C12.1874 15.4955 12.0724 15.9896 12.0397 16.7127C12.007 17.4375 11.9988 17.6694 11.9988 19.515C11.9988 21.3606 12.007 21.5919 12.0397 22.3168C12.073 23.0404 12.1874 23.5339 12.3556 23.9661C12.5291 24.413 12.7616 24.7926 13.1394 25.1699C13.5173 25.5472 13.8964 25.7808 14.3432 25.9543C14.7754 26.1225 15.2695 26.237 15.9932 26.2703C16.718 26.303 16.9499 26.3112 18.7955 26.3112C20.6411 26.3112 20.8724 26.303 21.5973 26.2703C22.3209 26.237 22.815 26.1225 23.2478 25.9543C23.6946 25.7808 24.0731 25.5478 24.451 25.1699C24.8289 24.792 25.0613 24.413 25.2354 23.9661C25.4024 23.5339 25.5169 23.0398 25.5514 22.3168C25.5841 21.5919 25.5922 21.3606 25.5922 19.515C25.5922 17.6694 25.5835 17.4375 25.5514 16.7127C25.5175 15.989 25.4024 15.4955 25.2354 15.0633C25.0613 14.6165 24.8289 14.2368 24.451 13.8595C24.0731 13.4822 23.6946 13.2492 23.2472 13.0757C22.8139 12.9075 22.3197 12.793 21.5961 12.7597C20.8713 12.727 20.6406 12.7189 18.7949 12.7189H18.7943ZM18.1858 13.9436C18.3668 13.9436 18.5683 13.9436 18.7955 13.9436C20.6102 13.9436 20.8251 13.9501 21.5418 13.9828C22.2047 14.0131 22.5639 14.1235 22.8033 14.217C23.1205 14.3402 23.3465 14.4874 23.5842 14.7251C23.822 14.9628 23.9691 15.1894 24.093 15.5066C24.1858 15.7461 24.2968 16.1052 24.3272 16.7682C24.3599 17.4848 24.3669 17.6997 24.3669 19.5138C24.3669 21.3279 24.3599 21.5429 24.3272 22.2595C24.2968 22.9224 24.1864 23.2816 24.093 23.5211C23.9697 23.8382 23.8225 24.0643 23.5842 24.302C23.3459 24.5397 23.1205 24.6869 22.8033 24.8101C22.5639 24.9036 22.2041 25.014 21.5418 25.0443C20.8251 25.077 20.6102 25.084 18.7955 25.084C16.9808 25.084 16.7659 25.077 16.0492 25.0443C15.3863 25.014 15.0271 24.903 14.7871 24.8101C14.4699 24.6869 14.2433 24.5397 14.0056 24.302C13.7679 24.0643 13.6207 23.8382 13.4969 23.5211C13.404 23.2816 13.2931 22.9224 13.2627 22.2595C13.23 21.5429 13.2236 21.3279 13.2236 19.5127C13.2236 17.6974 13.23 17.4836 13.2627 16.767C13.2931 16.1041 13.4034 15.7449 13.4969 15.5054C13.6201 15.1883 13.7673 14.9617 14.0056 14.7239C14.2439 14.4862 14.4699 14.339 14.7871 14.2152C15.0266 14.1218 15.3863 14.0114 16.0492 13.981C16.6759 13.953 16.9189 13.9448 18.1858 13.9436ZM18.7955 16.0246C16.8681 16.0246 15.3052 17.5876 15.3052 19.515C15.3052 21.4424 16.8681 23.0048 18.7955 23.0048C20.7229 23.0048 22.2853 21.443 22.2853 19.515C22.2853 17.587 20.7229 16.0246 18.7955 16.0246ZM18.7955 17.2494C20.0466 17.2494 21.0611 18.2634 21.0611 19.515C21.0611 20.7667 20.0466 21.7806 18.7955 21.7806C17.5444 21.7806 16.5299 20.7661 16.5299 19.515C16.5299 18.2639 17.5439 17.2494 18.7955 17.2494ZM22.4231 15.072C21.9728 15.072 21.6078 15.4371 21.6078 15.8874C21.6078 16.3377 21.9728 16.7027 22.4231 16.7027C22.8734 16.7027 23.2385 16.3377 23.2385 15.8874C23.2385 15.4371 22.8734 15.072 22.4231 15.072Z" fill="white"/>
</svg>
