<svg width="38" height="39" viewBox="0 0 38 39" fill="none" xmlns="http://www.w3.org/2000/svg">
<rect x="0.109985" y="0.830078" width="37.39" height="37.39" rx="3" fill="#FF6011"/>
<path d="M28.1382 19.5145C28.1382 14.3537 23.9545 10.17 18.7938 10.17C13.633 10.17 9.44934 14.3537 9.44934 19.5145C9.44934 24.1782 12.8667 28.0441 17.3336 28.745V22.2152H14.9611V19.5139H17.3336V17.4551C17.3336 15.113 18.7289 13.8193 20.8631 13.8193C21.8852 13.8193 22.9546 14.0021 22.9546 14.0021V16.3015H21.7766C20.616 16.3015 20.2539 17.0217 20.2539 17.7605V19.5133H22.8454L22.4313 22.2146H20.2539V28.7444C24.7214 28.0435 28.1382 24.1782 28.1382 19.5145Z" fill="white"/>
</svg>
