<svg width="38" height="39" viewBox="0 0 38 39" fill="none" xmlns="http://www.w3.org/2000/svg">
<rect x="0.109985" y="0.830078" width="37.39" height="37.39" rx="3" fill="#FF6011"/>
<path d="M27.0132 14.4253C26.5539 15.0928 25.9806 15.6876 25.3237 16.1668C25.3344 16.313 25.3344 16.4592 25.3344 16.6047C25.3344 21.0583 21.9449 26.1894 15.7498 26.1894C13.8414 26.1894 12.0679 25.6367 10.5767 24.6768C10.8477 24.7082 11.1087 24.7189 11.3903 24.7189C12.965 24.7189 14.4148 24.1869 15.5729 23.2797C14.0917 23.2484 12.8508 22.2785 12.423 20.9435C12.6319 20.9748 12.8402 20.9955 13.0591 20.9955C13.3615 20.9955 13.6638 20.9535 13.9455 20.8807C12.4023 20.5677 11.2442 19.212 11.2442 17.5746V17.5325C11.6927 17.7829 12.214 17.9391 12.7667 17.9604C11.8596 17.3557 11.2649 16.323 11.2649 15.1549C11.2649 14.5288 11.4317 13.9554 11.7241 13.4548C13.3822 15.4987 15.8753 16.8343 18.6701 16.9799C18.618 16.7295 18.5867 16.4686 18.5867 16.2082C18.5867 14.3519 20.0885 12.8394 21.9555 12.8394C22.9254 12.8394 23.8018 13.2459 24.4166 13.9034C25.1782 13.7572 25.9078 13.4755 26.5546 13.0897C26.3043 13.872 25.7723 14.5288 25.0734 14.946C25.7516 14.8732 26.4084 14.6857 27.0132 14.4253Z" fill="white"/>
</svg>
