<svg width="21" height="21" viewBox="0 0 21 21" fill="none" xmlns="http://www.w3.org/2000/svg">
<path d="M13.8675 13.7132C13.8391 13.7348 13.8116 13.759 13.785 13.7857C13.7583 13.8123 13.735 13.839 13.7125 13.8682C12.6641 14.879 11.2383 15.4998 9.66663 15.4998C8.05579 15.4998 6.59829 14.8482 5.54163 13.7915C4.48496 12.7348 3.83329 11.2773 3.83329 9.6665C3.83329 8.05567 4.48496 6.59817 5.54163 5.5415C6.59829 4.48484 8.05579 3.83317 9.66663 3.83317C11.2775 3.83317 12.735 4.48484 13.7916 5.5415C14.8483 6.59817 15.5 8.05567 15.5 9.6665C15.5 11.2382 14.8791 12.664 13.8675 13.7132ZM18.5891 17.4107L15.5266 14.3482C16.5525 13.0648 17.1666 11.4373 17.1666 9.6665C17.1666 7.59567 16.3266 5.71984 14.97 4.36317C13.6133 3.0065 11.7375 2.1665 9.66663 2.1665C7.59579 2.1665 5.71996 3.0065 4.36329 4.36317C3.00663 5.71984 2.16663 7.59567 2.16663 9.6665C2.16663 11.7373 3.00663 13.6132 4.36329 14.9698C5.71996 16.3265 7.59579 17.1665 9.66663 17.1665C11.4375 17.1665 13.065 16.5523 14.3483 15.5265L17.4108 18.589C17.7366 18.9148 18.2641 18.9148 18.5891 18.589C18.9141 18.2632 18.915 17.7357 18.5891 17.4107Z" fill="#1E1E1E"/>
</svg>
