<svg width="20" height="19" viewBox="0 0 20 19" fill="none" xmlns="http://www.w3.org/2000/svg">
<path d="M12.7958 0.280953C14.996 0.285042 15.0819 0.303148 15.5117 0.365058C16.3995 0.492968 17.1442 0.84691 17.7528 1.42864C18.0939 1.75688 18.3293 2.07811 18.5407 2.50798C18.7988 3.03306 18.9256 3.53009 18.9834 4.26952C18.9957 4.4278 19.0015 6.95153 19.0015 9.47702C19.0015 12.0025 18.9962 14.5303 18.984 14.6892C18.9267 15.4163 18.8 15.9181 18.55 16.4332C18.053 17.4582 17.1395 18.2058 16.0368 18.4903C15.6367 18.5937 15.2752 18.6421 14.652 18.6713C14.4295 18.6824 12.1049 18.6853 9.77974 18.6853C7.45459 18.6853 5.13119 18.6783 4.9034 18.6684C4.36548 18.6427 3.94613 18.589 3.56707 18.4914C2.47137 18.2082 1.54096 17.4495 1.05385 16.4385C0.799196 15.9105 0.678879 15.4274 0.615217 14.66C0.597111 14.4421 0.592438 13.319 0.592438 9.47935C0.592438 8.18566 0.59127 7.22137 0.592438 6.48837C0.595942 4.28996 0.614048 4.20177 0.676543 3.77131C0.804453 2.8847 1.15839 2.13886 1.74246 1.5326C2.06311 1.20027 2.38785 0.963138 2.80019 0.758132C3.33461 0.4918 3.82581 0.367979 4.61429 0.30198C4.83273 0.283874 5.95647 0.279785 9.7996 0.279785H12.7958V0.280953ZM9.79434 2.68846C7.94929 2.68846 7.718 2.69664 6.99318 2.72934C6.26953 2.76263 5.77599 2.87711 5.34379 3.04532C4.89698 3.21879 4.51734 3.45124 4.14003 3.82913C3.76273 4.20702 3.52969 4.58608 3.35564 5.03289C3.18743 5.46509 3.07237 5.95921 3.03966 6.68228C3.00695 7.4071 2.99878 7.63897 2.99878 9.48461C2.99878 11.3302 3.00695 11.5615 3.03966 12.2864C3.07295 13.01 3.18743 13.5035 3.35564 13.9358C3.5291 14.3826 3.76156 14.7622 4.13945 15.1395C4.51734 15.5168 4.8964 15.7504 5.3432 15.9239C5.77541 16.0921 6.26953 16.2066 6.99318 16.2399C7.718 16.2726 7.94987 16.2808 9.79551 16.2808C11.6411 16.2808 11.8724 16.2726 12.5973 16.2399C13.3209 16.2066 13.815 16.0921 14.2478 15.9239C14.6946 15.7504 15.0731 15.5174 15.451 15.1395C15.8289 14.7616 16.0613 14.3826 16.2354 13.9358C16.4024 13.5035 16.5169 13.0094 16.5514 12.2864C16.5841 11.5615 16.5922 11.3302 16.5922 9.48461C16.5922 7.63897 16.5835 7.4071 16.5514 6.68228C16.5175 5.95862 16.4024 5.46509 16.2354 5.03289C16.0613 4.58608 15.8289 4.20644 15.451 3.82913C15.0731 3.45183 14.6946 3.21879 14.2472 3.04532C13.8139 2.87711 13.3197 2.76263 12.5961 2.72934C11.8713 2.69664 11.6406 2.68846 9.79493 2.68846H9.79434ZM9.18575 3.91324C9.36681 3.91324 9.56831 3.91324 9.79551 3.91324C11.6102 3.91324 11.8251 3.91966 12.5418 3.95237C13.2047 3.98274 13.5639 4.09313 13.8033 4.18658C14.1205 4.30982 14.3465 4.457 14.5842 4.69471C14.822 4.93243 14.9691 5.15904 15.093 5.47619C15.1858 5.71566 15.2968 6.07485 15.3272 6.73776C15.3599 7.45441 15.3669 7.66934 15.3669 9.48344C15.3669 11.2975 15.3599 11.5125 15.3272 12.2291C15.2968 12.892 15.1864 13.2512 15.093 13.4907C14.9697 13.8078 14.8225 14.0339 14.5842 14.2716C14.3459 14.5093 14.1205 14.6565 13.8033 14.7797C13.5639 14.8732 13.2041 14.9836 12.5418 15.0139C11.8251 15.0466 11.6102 15.0536 9.79551 15.0536C7.98083 15.0536 7.76589 15.0466 7.04925 15.0139C6.38634 14.9836 6.02714 14.8726 5.78709 14.7797C5.46994 14.6565 5.24333 14.5093 5.00561 14.2716C4.7679 14.0339 4.62072 13.8078 4.4969 13.4907C4.40403 13.2512 4.29306 12.892 4.26269 12.2291C4.22998 11.5125 4.22355 11.2975 4.22355 9.48227C4.22355 7.66701 4.22998 7.45324 4.26269 6.7366C4.29306 6.07369 4.40345 5.71449 4.4969 5.47502C4.62013 5.15788 4.76732 4.93126 5.00561 4.69355C5.24391 4.45583 5.46994 4.30865 5.78709 4.18483C6.02656 4.09138 6.38634 3.98099 7.04925 3.95062C7.67595 3.92258 7.91892 3.91441 9.18575 3.91324ZM9.79551 5.99425C7.8681 5.99425 6.30515 7.5572 6.30515 9.48461C6.30515 11.412 7.8681 12.9744 9.79551 12.9744C11.7229 12.9744 13.2853 11.4126 13.2853 9.48461C13.2853 7.55662 11.7229 5.99425 9.79551 5.99425ZM9.79551 7.21903C11.0466 7.21903 12.0611 8.23296 12.0611 9.48461C12.0611 10.7363 11.0466 11.7502 9.79551 11.7502C8.54445 11.7502 7.52993 10.7357 7.52993 9.48461C7.52993 8.23355 8.54387 7.21903 9.79551 7.21903ZM13.4231 5.04165C12.9728 5.04165 12.6078 5.40669 12.6078 5.857C12.6078 6.30731 12.9728 6.67235 13.4231 6.67235C13.8734 6.67235 14.2385 6.30731 14.2385 5.857C14.2385 5.40669 13.8734 5.04165 13.4231 5.04165Z" fill="#1E1E1E"/>
</svg>
