<svg width="20" height="19" viewBox="0 0 20 19" fill="none" xmlns="http://www.w3.org/2000/svg">
<path d="M18.0132 4.39506C17.5539 5.06256 16.9806 5.65731 16.3237 6.13657C16.3344 6.28275 16.3344 6.42894 16.3344 6.57445C16.3344 11.028 12.9449 16.1591 6.74978 16.1591C4.8414 16.1591 3.06786 15.6064 1.57666 14.6465C1.84767 14.6779 2.10866 14.6886 2.39034 14.6886C3.96498 14.6886 5.41479 14.1566 6.5729 13.2494C5.09172 13.2181 3.85083 12.2482 3.42297 10.9132C3.63189 10.9446 3.84015 10.9653 4.05909 10.9653C4.36147 10.9653 4.66385 10.9232 4.94553 10.8505C3.40227 10.5374 2.24416 9.18171 2.24416 7.54433V7.50227C2.69272 7.75259 3.21404 7.90878 3.76673 7.93014C2.8596 7.32539 2.26485 6.29276 2.26485 5.12464C2.26485 4.49852 2.43173 3.92514 2.72409 3.42452C4.38216 5.4684 6.87528 6.80407 9.6701 6.94958C9.61803 6.69927 9.58666 6.43828 9.58666 6.17795C9.58666 4.32164 11.0885 2.80908 12.9555 2.80908C13.9254 2.80908 14.8018 3.21559 15.4166 3.87308C16.1782 3.72689 16.9078 3.44521 17.5546 3.05939C17.3043 3.8417 16.7723 4.49852 16.0734 4.91571C16.7516 4.84295 17.4084 4.65539 18.0132 4.39506Z" fill="#1E1E1E"/>
</svg>
